<svg xmlns="http://www.w3.org/2000/svg" version="1.1" xmlns:xlink="http://www.w3.org/1999/xlink" width="512" height="512" x="0" y="0" viewBox="0 0 491.52 491.52" style="enable-background:new 0 0 512 512" xml:space="preserve" class=""><g><circle cx="245.76" cy="245.76" r="245.76" style="" fill="#3c0dda" data-original="#45b39c" class="" opacity="1"></circle><path d="M306.842 121.227c-12.237-11.366-32.307-20.275-64.768-14.439-8.858 1.588-17.613 5.019-24.781 10.548-4.813 3.79-8.55 8.705-12.8 13.108a75.847 75.847 0 0 1-19.2 14.182c-5.53 2.816-11.674 5.171-15.565 10.035-5.274 6.503-5.069 15.77-3.328 23.91 2.867 13.466 9.318 26.573 7.68 40.193-1.126 9.37-5.939 17.715-9.83 26.265-3.891 8.551-7.014 18.178-4.454 27.239 2.304 8.397 9.421 16.077 7.424 24.576-1.024 4.455-3.123 9.473-3.84 13.977-6.246 37.94 5.274 57.498 18.688 67.175l109.241 109.241c96.332-18.061 172.807-92.289 194.172-187.413L310.63 125.016l-3.788-3.789z" style="opacity:0.1;enable-background:new ;" fill="#000000" opacity="1" data-original="#000000"></path><path d="M167.22 296.859c1.971-8.498-5.097-16.209-7.442-24.611-2.525-9.043.576-18.669 4.48-27.207 3.904-8.539 8.717-16.93 9.837-26.252 1.638-13.636-4.833-26.769-7.709-40.199-1.745-8.152-1.909-17.451 3.319-23.943 3.909-4.855 10.046-7.184 15.589-10.034a74.208 74.208 0 0 0 19.189-14.192c4.262-4.376 8.008-9.303 12.825-13.06 7.132-5.561 15.888-8.968 24.791-10.565 66.5-11.931 80.955 37.968 82.955 43.791 6.008 17.497 9.303 36.255 6.707 54.573-1.375 9.705-4.367 19.098-7.411 28.415-8.472 25.931-18.047 52.679-37.449 71.856-8.538 8.44-30.391 38.468-35.885 54.255-1.7 4.887-4.522 9.373-7.718 13.442-8.223 10.469-22.823 13.447-36.135 13.432-14.425-.016-54.334-11.903-43.809-75.741.741-4.492 2.838-9.525 3.866-13.96z" style="" fill="#f6c358" data-original="#f6c358"></path><path d="M199.723 277.696c-2.763 6.131-7.623 11.266-8.605 18.165-.377 2.651.042 5.407 1.395 7.717 3.717 6.345 11.138 4.9 15.195.798 2.947-2.979 4.456-7.071 5.597-11.102.424-1.499.839-3.065 1.856-4.244 1.582-1.832 4.189-2.284 6.565-2.745 13.724-2.666 26.79-9.678 35.599-20.534 10.155-12.514 14.031-29.192 13.868-45.307-.137-13.541-2.888-26.875-6.042-40.075-.98-4.102 2.814-7.854 6.853-6.639 6.725 2.024 12.697 6.981 16.397 13.071 5.239 8.626 6.558 19.111 6.179 29.196-1.269 33.763-19.968 64.515-42.088 90.054 21.564-12.071 36.125-34.154 43.993-57.582a148.796 148.796 0 0 0 7.593-53.374c-.738-17.82-5.907-37.304-20.842-47.055-10.225-6.675-23.162-7.503-35.355-6.822-10.422.582-21.169 2.253-29.906 7.964-2.365 1.545-4.59 3.418-6.031 5.847-.944 1.592-1.519 3.367-1.993 5.161-1.947 7.362-3.103 14.913-3.572 22.513-.308 4.982-.369 10.107 1.111 14.889 1.283 4.146 3.667 7.849 6.023 11.495 9.29 14.373 20.079 29.897 37.473 32.82 2.192.369 4.233 1.516 5.499 3.344 3.697 5.338-1.959 9.946-7.031 11.143-8.993 2.123-18.583-.686-26.409-5.599-4.063-2.551-7.727-5.649-11.198-8.947-2.49-2.366-5.354-7.056-8.858-7.652a.467.467 0 0 0-.504.294c-2.287 6.008.078 15.45.286 21.828.236 7.252-.018 14.654-3.048 21.378z" style="" fill="#dc8744" data-original="#dc8744"></path></g></svg>