<svg xmlns="http://www.w3.org/2000/svg" version="1.1" xmlns:xlink="http://www.w3.org/1999/xlink" width="512" height="512" x="0" y="0" viewBox="0 0 64 64" style="enable-background:new 0 0 512 512" xml:space="preserve"><g><path fill="#ffffff" d="M56 32a23.59 23.59 0 0 1-1.38 8 24 24 0 0 1-45.24 0 23.88 23.88 0 0 1 0-16 24 24 0 0 1 45.24 0A23.59 23.59 0 0 1 56 32z" opacity="1" data-original="#ffffff"></path><path fill="#0036a7" d="M56 32a23.59 23.59 0 0 1-1.38 8H9.38a23.88 23.88 0 0 1 0-16h45.24A23.59 23.59 0 0 1 56 32z" opacity="1" data-original="#0036a7"></path><path fill="#d62718" d="M54.62 40a24 24 0 0 1-45.24 0z" opacity="1" data-original="#d62718"></path></g></svg>